# xmcd
#
# Track frame offsets:
#	150
#	15377
#	33520
#	52545
#	68185
#	81932
#	95205
#	110532
#	122507
#	135037
#	143322
#	161312
#	182427
#	200337
#
# Disc length: 2929 seconds
#
# Revision: 0
# Processed by: cddbd v1.4PL0 Copyright (c) Steve Scherf et al.
# Submitted via: EasyCDDAExtractor 4.6.9.1
#
DISCID=a10b6f0e
DTITLE=Maxime Farago - Salut Johnny
DYEAR=1998
DGENRE=Country
TTITLE0=Le King N'est Plus
TTITLE1=Ma Poupee D'amour
TTITLE2=Parce Qu'elle Est La
TTITLE3=Du Soleil
TTITLE4=J'ai Ta Photo Dans Ma Chambre
TTITLE5=Cherie Je Me Souviens
TTITLE6=Trois Petit Coups
TTITLE7=Je T'aime Je Te Veux
TTITLE8=Etre Naturel
TTITLE9=T'aurais Pas Du Mourir Si Jeune
TTITLE10=L'artiste
TTITLE11=L'amour En Francais
TTITLE12=Tu Vas Danser
TTITLE13=Si Je Te Dis
EXTD=
EXTT0=
EXTT1=
EXTT2=
EXTT3=
EXTT4=
EXTT5=
EXTT6=
EXTT7=
EXTT8=
EXTT9=
EXTT10=
EXTT11=
EXTT12=
EXTT13=
PLAYORDER=
